<?xml version="1.0" encoding="UTF-8" standalone="no"?>
<!DOCTYPE svg PUBLIC "-//W3C//DTD SVG 1.1//EN"
 "http://www.w3.org/Graphics/SVG/1.1/DTD/svg11.dtd">
<!-- Generated by graphviz version 2.44.1 (20200629.0846)
 -->
<!-- Title: snakemake_dag Pages: 1 -->
<svg width="113pt" height="260pt"
 viewBox="0.00 0.00 113.00 260.00" xmlns="http://www.w3.org/2000/svg" xmlns:xlink="http://www.w3.org/1999/xlink">
<g id="graph0" class="graph" transform="scale(1 1) rotate(0) translate(4 256)">
<title>snakemake_dag</title>
<polygon fill="white" stroke="transparent" points="-4,4 -4,-256 109,-256 109,4 -4,4"/>
<!-- 0 -->
<g id="node1" class="node">
<title>0</title>
<path fill="none" stroke="#d85656" stroke-width="2" d="M74,-36C74,-36 31,-36 31,-36 25,-36 19,-30 19,-24 19,-24 19,-12 19,-12 19,-6 25,0 31,0 31,0 74,0 74,0 80,0 86,-6 86,-12 86,-12 86,-24 86,-24 86,-30 80,-36 74,-36"/>
<text text-anchor="middle" x="52.5" y="-15.5" font-family="sans" font-size="10.00">subsampler</text>
</g>
<!-- 1 -->
<g id="node2" class="node">
<title>1</title>
<path fill="none" stroke="#d8ac56" stroke-width="2" d="M75.5,-108C75.5,-108 29.5,-108 29.5,-108 23.5,-108 17.5,-102 17.5,-96 17.5,-96 17.5,-84 17.5,-84 17.5,-78 23.5,-72 29.5,-72 29.5,-72 75.5,-72 75.5,-72 81.5,-72 87.5,-78 87.5,-84 87.5,-84 87.5,-96 87.5,-96 87.5,-102 81.5,-108 75.5,-108"/>
<text text-anchor="middle" x="52.5" y="-87.5" font-family="sans" font-size="10.00">correct_bias</text>
</g>
<!-- 1&#45;&gt;0 -->
<g id="edge1" class="edge">
<title>1&#45;&gt;0</title>
<path fill="none" stroke="grey" stroke-width="2" d="M52.5,-71.7C52.5,-63.98 52.5,-54.71 52.5,-46.11"/>
<polygon fill="grey" stroke="grey" stroke-width="2" points="56,-46.1 52.5,-36.1 49,-46.1 56,-46.1"/>
</g>
<!-- 2 -->
<g id="node3" class="node">
<title>2</title>
<path fill="none" stroke="#afd856" stroke-width="2" d="M93,-180C93,-180 12,-180 12,-180 6,-180 0,-174 0,-168 0,-168 0,-156 0,-156 0,-150 6,-144 12,-144 12,-144 93,-144 93,-144 99,-144 105,-150 105,-156 105,-156 105,-168 105,-168 105,-174 99,-180 93,-180"/>
<text text-anchor="middle" x="52.5" y="-159.5" font-family="sans" font-size="10.00">epiweek_conversion</text>
</g>
<!-- 2&#45;&gt;1 -->
<g id="edge2" class="edge">
<title>2&#45;&gt;1</title>
<path fill="none" stroke="grey" stroke-width="2" d="M52.5,-143.7C52.5,-135.98 52.5,-126.71 52.5,-118.11"/>
<polygon fill="grey" stroke="grey" stroke-width="2" points="56,-118.1 52.5,-108.1 49,-118.1 56,-118.1"/>
</g>
<!-- 3 -->
<g id="node4" class="node">
<title>3</title>
<path fill="none" stroke="#56d8a9" stroke-width="2" d="M82,-252C82,-252 23,-252 23,-252 17,-252 11,-246 11,-240 11,-240 11,-228 11,-228 11,-222 17,-216 23,-216 23,-216 82,-216 82,-216 88,-216 94,-222 94,-228 94,-228 94,-240 94,-240 94,-246 88,-252 82,-252"/>
<text text-anchor="middle" x="52.5" y="-231.5" font-family="sans" font-size="10.00">genome_matrix</text>
</g>
<!-- 3&#45;&gt;2 -->
<g id="edge3" class="edge">
<title>3&#45;&gt;2</title>
<path fill="none" stroke="grey" stroke-width="2" d="M52.5,-215.7C52.5,-207.98 52.5,-198.71 52.5,-190.11"/>
<polygon fill="grey" stroke="grey" stroke-width="2" points="56,-190.1 52.5,-180.1 49,-190.1 56,-190.1"/>
</g>
</g>
</svg>
